<?xml version="1.0" standalone="no"?>
<svg xmlns="http://www.w3.org/2000/svg" viewBox="0 0 222.118 29" width="222.118" height="29"><g fill="#12730f" color="#12730f" transform="translate(0, 0) scale(0.29)"><svg width="100.0" height="100.0" x="0.0" y="0.0" viewBox="0 0 100 100"><g><path d="M81.975,5.063C81.31,4.853,65.409,0,49.606,0C33.779,0,18.643,4.866,18.003,5.063c-0.714,0.234-1.159,0.948-1.048,1.699   l13.622,91.919c0.11,0.763,0.752,1.318,1.516,1.318h35.805c0.763,0,1.416-0.556,1.527-1.318L83.046,6.762   C83.157,6.011,82.701,5.284,81.975,5.063z M33.423,96.921L20.194,7.624C24.136,6.466,36.822,3.08,49.606,3.08   c12.834,0,26.111,3.412,30.201,4.557L66.579,96.921H33.423z"></path><path d="M72.134,31.248c-0.173-0.11-4.077-2.709-10.777-2.709c-3.854,0-7.883,0.862-11.946,2.561   c-3.694,1.54-7.317,2.316-10.765,2.316c-5.704,0-9.017-2.155-9.04-2.168c-0.505-0.344-1.172-0.357-1.688-0.037   c-0.518,0.333-0.788,0.924-0.702,1.54l8.844,59.576c0.111,0.751,0.751,1.307,1.514,1.307h24.856c0.764,0,1.403-0.556,1.514-1.307   l8.845-59.576C72.872,32.16,72.615,31.58,72.134,31.248z M38.903,90.554L30.676,35.14c1.848,0.677,4.545,1.355,7.97,1.355   c3.854,0,7.882-0.863,11.946-2.55c3.695-1.551,7.316-2.327,10.765-2.327c4.065,0,6.909,1.096,8.228,1.736l-8.486,57.2H38.903z"></path><path d="M73.279,9.743c-0.087,0.013-6.479,1.047-14.447,1.614l-17.834,0.135c-7.907-0.468-14.202-1.404-14.301-1.428   c-0.838-0.124-1.625,0.455-1.749,1.293c-0.123,0.838,0.457,1.625,1.294,1.749c0.11,0.024,11.417,1.712,22.896,1.712h0.801   c11.749-0.086,23.722-2.02,23.833-2.032c0.837-0.136,1.416-0.936,1.28-1.774C74.905,10.174,74.116,9.607,73.279,9.743z"></path></g></svg></g><line x1="41" y1="1" x2="41" y2="28" stroke="#eca706" stroke-linecap="round"></line><path fill="#eca706" fill-rule="nonzero" d="M9.85 16.32Q8.99 17.00 7.62 17.38Q6.25 17.75 4.25 17.75Q2.25 17.75 0 17.39L0 17.39L0 1.95Q2.27 1.58 3.94 1.58Q5.61 1.58 6.69 1.90Q7.76 2.21 8.44 2.75L8.44 2.75Q9.77 3.80 9.77 5.46Q9.77 7.11 8.57 8.20L8.57 8.20Q10.00 8.65 10.78 9.89L10.78 9.89Q11.50 11.00 11.50 12.36Q11.50 13.71 11.10 14.67Q10.71 15.63 9.85 16.32ZM3.11 4.11L3.11 7.77Q3.60 7.85 4.34 7.85Q5.07 7.85 5.55 7.66Q6.02 7.46 6.28 7.17L6.28 7.17Q6.70 6.69 6.70 5.84L6.70 5.84Q6.70 4.04 4.59 4.04L4.59 4.04Q3.70 4.04 3.11 4.11L3.11 4.11ZM4.84 10.28L4.84 10.28Q3.86 10.28 3.11 10.41L3.11 10.41L3.11 15.01Q3.93 15.22 4.83 15.22Q5.73 15.22 6.42 15.01Q7.10 14.79 7.57 14.41L7.57 14.41Q8.52 13.64 8.52 12.45L8.52 12.45Q8.52 10.28 4.84 10.28ZM21.82 16.73L21.82 16.73Q20.16 17.64 18.81 17.64Q17.46 17.64 16.50 17.38Q15.54 17.13 14.87 16.64L14.87 16.64Q13.51 15.64 13.51 13.76L13.51 13.76Q13.51 12.07 15.18 10.95L15.18 10.95Q16.98 9.73 20.07 9.73L20.07 9.73L20.54 9.74Q20.68 9.75 20.86 9.76Q21.04 9.76 21.18 9.79L21.18 9.79Q21.08 7.91 19.56 7.59L19.56 7.59Q19.05 7.49 18.49 7.49Q17.92 7.49 17.37 7.59Q16.83 7.69 16.31 7.85L16.31 7.85Q15.18 8.21 14.68 8.68L14.68 8.68L14.65 8.66L14.30 6.07Q16.37 4.98 18.83 4.98L18.83 4.98Q22.65 4.98 23.72 7.73L23.72 7.73Q24.06 8.61 24.06 9.71L24.06 9.71L24.06 13.96Q24.06 15.32 25.02 15.81L25.02 15.81L22.90 17.75Q22.23 17.40 21.82 16.73ZM21.19 14.34L21.19 11.89Q20.87 11.84 20.53 11.84L20.53 11.84L20.06 11.84Q17.47 11.84 16.77 12.98L16.77 12.98Q16.56 13.32 16.56 13.70Q16.56 14.07 16.69 14.36Q16.83 14.65 17.14 14.84L17.14 14.84Q17.75 15.19 18.96 15.19Q20.16 15.19 21.20 14.61L21.20 14.61Q21.19 14.48 21.19 14.34L21.19 14.34ZM30.48 8.93L30.48 16.15Q30.48 17.16 30.53 17.46L30.53 17.46L27.61 17.46L27.61 5.21L30.48 5.21L30.48 6.12Q31.48 4.98 32.57 4.98Q33.67 4.98 34.30 5.25L34.30 5.25L34.09 8.40L34.04 8.44Q33.63 7.71 32.34 7.71L32.34 7.71Q31.85 7.71 31.34 8.04Q30.83 8.38 30.48 8.93L30.48 8.93ZM41.17 14.88L41.17 14.88Q42.68 14.88 43.24 14.10L43.24 14.10L43.34 14.10L43.37 16.82Q42.80 17.39 41.24 17.58L41.24 17.58Q40.82 17.64 40.19 17.64Q39.56 17.64 38.83 17.40Q38.10 17.17 37.58 16.64L37.58 16.64Q36.52 15.55 36.52 13.23L36.52 13.23L36.52 7.91L34.75 7.91Q34.73 7.57 34.73 7.22L34.73 7.22L34.73 5.41Q34.73 5.21 34.75 5.21L34.75 5.21L36.52 5.21L36.52 1.88L39.39 1.88L39.39 5.21L42.61 5.21L42.61 7.91L39.39 7.91L39.39 12.69Q39.39 14.53 40.41 14.79L40.41 14.79Q40.73 14.88 41.17 14.88ZM45.16 11.44L45.16 11.44Q45.16 10.07 45.63 8.89Q46.10 7.72 46.96 6.84L46.96 6.84Q48.79 4.98 51.74 4.98L51.74 4.98Q54.23 4.98 55.75 6.63L55.75 6.63Q57.23 8.23 57.23 10.64L57.23 10.64Q57.23 11.57 57.09 11.91L57.09 11.91Q55.92 12.23 52.32 12.23L52.32 12.23L48.20 12.23Q48.50 13.49 49.62 14.19Q50.73 14.88 52.51 14.88L52.51 14.88Q54.38 14.88 55.71 14.21L55.71 14.21Q56.06 14.04 56.24 13.89L56.24 13.89Q56.21 14.38 56.18 14.89L56.18 14.89L56.05 16.72Q55.16 17.33 53.17 17.57L53.17 17.57Q52.58 17.64 52.04 17.64L52.04 17.64Q49.07 17.64 47.12 15.90L47.12 15.90Q45.16 14.16 45.16 11.44ZM54.12 9.96L54.12 9.96Q53.64 7.44 51.38 7.44L51.38 7.44Q49.59 7.44 48.67 8.98L48.67 8.98Q48.39 9.45 48.23 10.01L48.23 10.01Q48.52 10.02 48.93 10.03L48.93 10.03L49.79 10.03Q50.23 10.04 50.63 10.04L50.63 10.04L51.29 10.04Q51.89 10.04 52.46 10.03L52.46 10.03L53.43 10.00Q53.81 9.98 54.12 9.96ZM62.86 9.27L62.86 15.96Q62.86 16.99 62.95 17.46L62.95 17.46L60.01 17.46L60.01 5.21L62.86 5.21L62.86 6.26Q64.41 4.98 66.16 4.98L66.16 4.98Q68.09 4.98 69.23 6.29Q70.38 7.59 70.38 9.73L70.38 9.73L70.38 14.39Q70.38 16.37 70.44 16.77Q70.50 17.17 70.60 17.29Q70.70 17.40 70.77 17.50L70.77 17.50L70.75 17.54Q69.80 17.46 69.36 17.46L69.36 17.46L68.54 17.46Q68.17 17.46 67.54 17.50L67.54 17.50L67.54 11.11Q67.54 7.68 65.45 7.68L65.45 7.68Q63.90 7.68 62.86 9.27L62.86 9.27ZM82.21 16.80L82.21 16.80Q80.72 17.64 79.23 17.64Q77.74 17.64 76.63 17.17Q75.52 16.70 74.73 15.88L74.73 15.88Q73.11 14.19 73.11 11.50L73.11 11.50Q73.11 8.71 74.99 6.86L74.99 6.86Q76.88 4.98 79.82 4.98L79.82 4.98Q80.72 4.98 81.59 5.21L81.59 5.21L81.59 0L84.46 0L84.46 12.53Q84.46 14.09 84.60 14.57Q84.75 15.05 84.93 15.27Q85.11 15.49 85.39 15.69L85.39 15.69L83.19 17.64Q82.58 17.31 82.21 16.80ZM79.78 14.94L79.78 14.94Q80.77 14.94 81.59 14.57L81.59 14.57L81.59 8.07Q80.77 7.73 79.80 7.73Q78.84 7.73 78.16 7.99Q77.47 8.25 76.98 8.71L76.98 8.71Q75.95 9.67 75.95 11.20L75.95 11.20Q75.95 12.88 76.89 13.88L76.89 13.88Q77.89 14.94 79.78 14.94ZM87.25 11.44L87.25 11.44Q87.25 10.07 87.71 8.89Q88.18 7.72 89.04 6.84L89.04 6.84Q90.87 4.98 93.82 4.98L93.82 4.98Q96.32 4.98 97.83 6.63L97.83 6.63Q99.32 8.23 99.32 10.64L99.32 10.64Q99.32 11.57 99.18 11.91L99.18 11.91Q98.00 12.23 94.41 12.23L94.41 12.23L90.28 12.23Q90.59 13.49 91.70 14.19Q92.81 14.88 94.59 14.88L94.59 14.88Q96.46 14.88 97.79 14.21L97.79 14.21Q98.14 14.04 98.32 13.89L98.32 13.89Q98.30 14.38 98.26 14.89L98.26 14.89L98.13 16.72Q97.24 17.33 95.25 17.57L95.25 17.57Q94.66 17.64 94.13 17.64L94.13 17.64Q91.15 17.64 89.20 15.90L89.20 15.90Q87.25 14.16 87.25 11.44ZM96.20 9.96L96.20 9.96Q95.72 7.44 93.46 7.44L93.46 7.44Q91.68 7.44 90.75 8.98L90.75 8.98Q90.47 9.45 90.32 10.01L90.32 10.01Q90.60 10.02 91.01 10.03L91.01 10.03L91.88 10.03Q92.31 10.04 92.71 10.04L92.71 10.04L93.38 10.04Q93.97 10.04 94.55 10.03L94.55 10.03L95.51 10.00Q95.89 9.98 96.20 9.96ZM104.63 8.93L104.63 16.15Q104.63 17.16 104.67 17.46L104.67 17.46L101.75 17.46L101.75 5.21L104.63 5.21L104.63 6.12Q105.62 4.98 106.72 4.98Q107.81 4.98 108.45 5.25L108.45 5.25L108.23 8.40L108.19 8.44Q107.78 7.71 106.49 7.71L106.49 7.71Q106.00 7.71 105.49 8.04Q104.98 8.38 104.63 8.93L104.63 8.93ZM120.76 0.02L120.76 5.66Q122.07 4.98 123.45 4.98Q124.82 4.98 125.81 5.41Q126.80 5.84 127.55 6.63L127.55 6.63Q129.18 8.40 129.18 11.11L129.18 11.11Q129.18 14.07 127.41 15.89L127.41 15.89Q125.71 17.64 123.18 17.64L123.18 17.64Q120.95 17.64 119.51 16.48L119.51 16.48Q117.89 15.16 117.89 12.86L117.89 12.86L117.89 0.02L120.76 0.02ZM120.76 8.63L120.76 12.82Q120.76 14.88 123.33 14.88L123.33 14.88Q124.58 14.88 125.44 13.78L125.44 13.78Q126.30 12.66 126.30 10.98L126.30 10.98Q126.30 9.29 125.39 8.44L125.39 8.44Q124.57 7.68 123.19 7.68L123.19 7.68Q122.36 7.68 121.35 8.24L121.35 8.24Q121.03 8.41 120.76 8.63L120.76 8.63ZM139.83 16.73L139.83 16.73Q138.16 17.64 136.82 17.64Q135.47 17.64 134.51 17.38Q133.55 17.13 132.88 16.64L132.88 16.64Q131.52 15.64 131.52 13.76L131.52 13.76Q131.52 12.07 133.18 10.95L133.18 10.95Q134.99 9.73 138.08 9.73L138.08 9.73L138.55 9.74Q138.69 9.75 138.87 9.76Q139.04 9.76 139.18 9.79L139.18 9.79Q139.09 7.91 137.57 7.59L137.57 7.59Q137.06 7.49 136.49 7.49Q135.93 7.49 135.38 7.59Q134.84 7.69 134.32 7.85L134.32 7.85Q133.18 8.21 132.69 8.68L132.69 8.68L132.66 8.66L132.30 6.07Q134.38 4.98 136.84 4.98L136.84 4.98Q140.66 4.98 141.73 7.73L141.73 7.73Q142.07 8.61 142.07 9.71L142.07 9.71L142.07 13.96Q142.07 15.32 143.03 15.81L143.03 15.81L140.91 17.75Q140.24 17.40 139.83 16.73ZM139.20 14.34L139.20 11.89Q138.88 11.84 138.54 11.84L138.54 11.84L138.07 11.84Q135.48 11.84 134.78 12.98L134.78 12.98Q134.57 13.32 134.57 13.70Q134.57 14.07 134.70 14.36Q134.84 14.65 135.15 14.84L135.15 14.84Q135.76 15.19 136.96 15.19Q138.16 15.19 139.21 14.61L139.21 14.61Q139.20 14.48 139.20 14.34L139.20 14.34ZM148.65 0.02L148.65 5.66Q149.96 4.98 151.34 4.98Q152.71 4.98 153.70 5.41Q154.69 5.84 155.44 6.63L155.44 6.63Q157.07 8.40 157.07 11.11L157.07 11.11Q157.07 14.07 155.30 15.89L155.30 15.89Q153.60 17.64 151.07 17.64L151.07 17.64Q148.84 17.64 147.40 16.48L147.40 16.48Q145.78 15.16 145.78 12.86L145.78 12.86L145.78 0.02L148.65 0.02ZM148.65 8.63L148.65 12.82Q148.65 14.88 151.22 14.88L151.22 14.88Q152.47 14.88 153.33 13.78L153.33 13.78Q154.20 12.66 154.20 10.98L154.20 10.98Q154.20 9.29 153.28 8.44L153.28 8.44Q152.46 7.68 151.08 7.68L151.08 7.68Q150.25 7.68 149.24 8.24L149.24 8.24Q148.92 8.41 148.65 8.63L148.65 8.63ZM159.05 11.44L159.05 11.44Q159.05 10.07 159.52 8.89Q159.98 7.72 160.84 6.84L160.84 6.84Q162.67 4.98 165.62 4.98L165.62 4.98Q168.12 4.98 169.63 6.63L169.63 6.63Q171.12 8.23 171.12 10.64L171.12 10.64Q171.12 11.57 170.98 11.91L170.98 11.91Q169.80 12.23 166.21 12.23L166.21 12.23L162.08 12.23Q162.39 13.49 163.50 14.19Q164.61 14.88 166.39 14.88L166.39 14.88Q168.26 14.88 169.59 14.21L169.59 14.21Q169.95 14.04 170.12 13.89L170.12 13.89Q170.10 14.38 170.06 14.89L170.06 14.89L169.93 16.72Q169.04 17.33 167.05 17.57L167.05 17.57Q166.46 17.64 165.93 17.64L165.93 17.64Q162.95 17.64 161.00 15.90L161.00 15.90Q159.05 14.16 159.05 11.44ZM168 9.96L168 9.96Q167.52 7.44 165.26 7.44L165.26 7.44Q163.48 7.44 162.55 8.98L162.55 8.98Q162.27 9.45 162.12 10.01L162.12 10.01Q162.40 10.02 162.81 10.03L162.81 10.03L163.68 10.03Q164.11 10.04 164.51 10.04L164.51 10.04L165.18 10.04Q165.77 10.04 166.35 10.03L166.35 10.03L167.31 10.00Q167.70 9.98 168 9.96Z" transform="translate(51, 5.624)"></path></svg>